<mxfile host="65bd71144e">
    <diagram id="-KFERmtRJ2IRZyIPahyN" name="Page-1">
        <mxGraphModel dx="1156" dy="876" grid="1" gridSize="10" guides="1" tooltips="1" connect="1" arrows="1" fold="1" page="1" pageScale="1" pageWidth="827" pageHeight="1169" math="0" shadow="0">
            <root>
                <mxCell id="0"/>
                <mxCell id="1" parent="0"/>
                <mxCell id="2" value="&lt;b&gt;Bonn&lt;br&gt;&lt;/b&gt;&lt;i&gt;Geburtsort&lt;/i&gt;" style="rounded=0;whiteSpace=wrap;html=1;fontFamily=Alegreya;fontSource=https%3A%2F%2Ffonts.googleapis.com%2Fcss%3Ffamily%3DAlegreya;" parent="1" vertex="1">
                    <mxGeometry x="360" y="220" width="80" height="40" as="geometry"/>
                </mxCell>
                <mxCell id="5" value="&lt;b&gt;Christian Gottlob Neefe&lt;br&gt;&lt;/b&gt;&lt;i&gt;Lehrer, 1748-1798&lt;/i&gt;" style="rounded=0;whiteSpace=wrap;html=1;fontFamily=Alegreya;fontSource=https%3A%2F%2Ffonts.googleapis.com%2Fcss%3Ffamily%3DAlegreya;" parent="1" vertex="1">
                    <mxGeometry x="620" y="600" width="140" height="40" as="geometry"/>
                </mxCell>
                <mxCell id="7" value="&lt;b&gt;Wolfgang Amadeus Mozart&lt;br&gt;&lt;/b&gt;&lt;i&gt;Vorbild, möglicherweise Lehrer&lt;/i&gt;" style="rounded=0;whiteSpace=wrap;html=1;fontFamily=Alegreya;fontSource=https%3A%2F%2Ffonts.googleapis.com%2Fcss%3Ffamily%3DAlegreya;" parent="1" vertex="1">
                    <mxGeometry x="590" y="480" width="180" height="40" as="geometry"/>
                </mxCell>
                <mxCell id="8" value="&lt;b&gt;Joseph Haydn&lt;br&gt;&lt;/b&gt;&lt;i&gt;Lehrer&lt;/i&gt;" style="rounded=0;whiteSpace=wrap;html=1;fontFamily=Alegreya;fontSource=https%3A%2F%2Ffonts.googleapis.com%2Fcss%3Ffamily%3DAlegreya;" parent="1" vertex="1">
                    <mxGeometry x="630" y="540" width="90" height="40" as="geometry"/>
                </mxCell>
                <mxCell id="10" value="&lt;b&gt;Wien&lt;br&gt;&lt;/b&gt;&lt;i&gt;Wohnort ab 1792&lt;/i&gt;" style="rounded=0;whiteSpace=wrap;html=1;fontFamily=Alegreya;fontSource=https%3A%2F%2Ffonts.googleapis.com%2Fcss%3Ffamily%3DAlegreya;" parent="1" vertex="1">
                    <mxGeometry x="485" y="230" width="100" height="40" as="geometry"/>
                </mxCell>
                <mxCell id="12" value="&lt;b&gt;Hörrohre&lt;br&gt;&lt;/b&gt;&lt;i&gt;Hörhilfe&lt;/i&gt;" style="rounded=0;whiteSpace=wrap;html=1;fontFamily=Alegreya;fontSource=https%3A%2F%2Ffonts.googleapis.com%2Fcss%3Ffamily%3DAlegreya;" parent="1" vertex="1">
                    <mxGeometry x="110" y="450" width="70" height="40" as="geometry"/>
                </mxCell>
                <mxCell id="13" value="&lt;b&gt;Oper Fidelio&amp;nbsp;&lt;br&gt;&lt;/b&gt;&lt;i&gt;einzige Oper&lt;/i&gt;" style="rounded=0;whiteSpace=wrap;html=1;fontFamily=Alegreya;fontSource=https%3A%2F%2Ffonts.googleapis.com%2Fcss%3Ffamily%3DAlegreya;" parent="1" vertex="1">
                    <mxGeometry x="100" y="740" width="90" height="40" as="geometry"/>
                </mxCell>
                <mxCell id="18" value="&lt;b&gt;Beethoven-Haus in Bonn&lt;br&gt;&lt;/b&gt;&lt;i&gt;Geburtshaus und heute Museum&lt;/i&gt;" style="rounded=0;whiteSpace=wrap;html=1;fontFamily=Alegreya;fontSource=https%3A%2F%2Ffonts.googleapis.com%2Fcss%3Ffamily%3DAlegreya;" parent="1" vertex="1">
                    <mxGeometry x="110" y="220" width="180" height="40" as="geometry"/>
                </mxCell>
                <mxCell id="20" value="&lt;b&gt;Brief an die Unsterbliche Geliebte&amp;nbsp;&lt;br&gt;&lt;/b&gt;&lt;i&gt;Liebesbrief an eine unbekannte Geliebte&lt;/i&gt;" style="rounded=0;whiteSpace=wrap;html=1;fontFamily=Alegreya;fontSource=https%3A%2F%2Ffonts.googleapis.com%2Fcss%3Ffamily%3DAlegreya;" parent="1" vertex="1">
                    <mxGeometry x="520" y="310" width="220" height="40" as="geometry"/>
                </mxCell>
                <mxCell id="21" value="&lt;b&gt;Missa Solemnis&lt;br&gt;&lt;/b&gt;&lt;i&gt;große geistliche Mess-Komposition&lt;/i&gt;" style="rounded=0;whiteSpace=wrap;html=1;fontFamily=Alegreya;fontSource=https%3A%2F%2Ffonts.googleapis.com%2Fcss%3Ffamily%3DAlegreya;" parent="1" vertex="1">
                    <mxGeometry x="80" y="830" width="200" height="40" as="geometry"/>
                </mxCell>
                <mxCell id="22" value="&lt;b&gt;Napoleon Bonaparte&lt;br&gt;&lt;/b&gt;&lt;i&gt;Französischer Feldherr, 3. Symphonie war &lt;br&gt;ursprünglich Napoleon gewidmet&lt;/i&gt;" style="rounded=0;whiteSpace=wrap;html=1;fontFamily=Alegreya;fontSource=https%3A%2F%2Ffonts.googleapis.com%2Fcss%3Ffamily%3DAlegreya;" parent="1" vertex="1">
                    <mxGeometry x="55" y="540" width="230" height="60" as="geometry"/>
                </mxCell>
                <mxCell id="26" value="&lt;b&gt;Anton Schindler&lt;br&gt;&lt;/b&gt;&lt;i&gt;Sekretär und erster Biograph&lt;/i&gt;" style="rounded=0;whiteSpace=wrap;html=1;fontFamily=Alegreya;fontSource=https%3A%2F%2Ffonts.googleapis.com%2Fcss%3Ffamily%3DAlegreya;" parent="1" vertex="1">
                    <mxGeometry x="60" y="310" width="170" height="40" as="geometry"/>
                </mxCell>
                <mxCell id="28" value="&lt;b&gt;Mondschein-Sonate&lt;br&gt;&lt;/b&gt;&lt;i&gt;Berühmte Klaviersonate (Nr. 14)&lt;/i&gt;" style="rounded=0;whiteSpace=wrap;html=1;fontFamily=Alegreya;fontSource=https%3A%2F%2Ffonts.googleapis.com%2Fcss%3Ffamily%3DAlegreya;" parent="1" vertex="1">
                    <mxGeometry x="580" y="830" width="180" height="40" as="geometry"/>
                </mxCell>
                <mxCell id="29" value="&lt;b style=&quot;font-size: 36px;&quot;&gt;&lt;font data-font-src=&quot;https://fonts.googleapis.com/css?family=Alegreya+Sans&quot; face=&quot;Alegreya Sans&quot;&gt;Ludwig &lt;br&gt;van &lt;br&gt;Beethoven&lt;/font&gt;&lt;/b&gt;" style="rounded=0;whiteSpace=wrap;html=1;fontFamily=Alegreya;fontSource=https%3A%2F%2Ffonts.googleapis.com%2Fcss%3Ffamily%3DAlegreya;fontSize=36;" parent="1" vertex="1">
                    <mxGeometry x="335" y="510" width="170" height="150" as="geometry"/>
                </mxCell>
                <mxCell id="30" value="" style="endArrow=none;html=1;" edge="1" parent="1" source="13" target="29">
                    <mxGeometry width="50" height="50" relative="1" as="geometry">
                        <mxPoint x="240" y="710" as="sourcePoint"/>
                        <mxPoint x="290" y="660" as="targetPoint"/>
                    </mxGeometry>
                </mxCell>
                <mxCell id="31" value="" style="endArrow=none;html=1;" edge="1" parent="1" source="22" target="29">
                    <mxGeometry width="50" height="50" relative="1" as="geometry">
                        <mxPoint x="215" y="669.4230769230769" as="sourcePoint"/>
                        <mxPoint x="340.0000000000002" y="626.1538461538462" as="targetPoint"/>
                    </mxGeometry>
                </mxCell>
                <mxCell id="32" value="" style="endArrow=none;html=1;" edge="1" parent="1" source="11" target="29">
                    <mxGeometry width="50" height="50" relative="1" as="geometry">
                        <mxPoint x="160" y="520" as="sourcePoint"/>
                        <mxPoint x="285.0000000000002" y="476.7307692307693" as="targetPoint"/>
                    </mxGeometry>
                </mxCell>
                <mxCell id="33" value="" style="endArrow=none;html=1;" edge="1" parent="1" source="25" target="29">
                    <mxGeometry width="50" height="50" relative="1" as="geometry">
                        <mxPoint x="380" y="490" as="sourcePoint"/>
                        <mxPoint x="505.0000000000002" y="446.7307692307693" as="targetPoint"/>
                    </mxGeometry>
                </mxCell>
                <mxCell id="35" value="" style="endArrow=none;html=1;" edge="1" parent="1" source="4" target="29">
                    <mxGeometry width="50" height="50" relative="1" as="geometry">
                        <mxPoint x="440" y="430" as="sourcePoint"/>
                        <mxPoint x="565.0000000000002" y="386.7307692307693" as="targetPoint"/>
                    </mxGeometry>
                </mxCell>
                <mxCell id="36" value="" style="endArrow=none;html=1;" edge="1" parent="1" source="10" target="29">
                    <mxGeometry width="50" height="50" relative="1" as="geometry">
                        <mxPoint x="500" y="270" as="sourcePoint"/>
                        <mxPoint x="625.0000000000002" y="226.73076923076928" as="targetPoint"/>
                    </mxGeometry>
                </mxCell>
                <mxCell id="37" value="" style="endArrow=none;html=1;" edge="1" parent="1" source="29" target="15">
                    <mxGeometry width="50" height="50" relative="1" as="geometry">
                        <mxPoint x="520" y="480" as="sourcePoint"/>
                        <mxPoint x="645.0000000000002" y="436.7307692307693" as="targetPoint"/>
                    </mxGeometry>
                </mxCell>
                <mxCell id="38" value="" style="endArrow=none;html=1;" edge="1" parent="1" source="29" target="5">
                    <mxGeometry width="50" height="50" relative="1" as="geometry">
                        <mxPoint x="604.35" y="490" as="sourcePoint"/>
                        <mxPoint x="635.6403225806454" y="470" as="targetPoint"/>
                    </mxGeometry>
                </mxCell>
                <mxCell id="39" value="" style="endArrow=none;html=1;" edge="1" parent="1" source="29" target="7">
                    <mxGeometry width="50" height="50" relative="1" as="geometry">
                        <mxPoint x="540" y="650" as="sourcePoint"/>
                        <mxPoint x="571.2903225806451" y="630" as="targetPoint"/>
                    </mxGeometry>
                </mxCell>
                <mxCell id="40" value="" style="endArrow=none;html=1;" edge="1" parent="1" source="29" target="8">
                    <mxGeometry width="50" height="50" relative="1" as="geometry">
                        <mxPoint x="530" y="660" as="sourcePoint"/>
                        <mxPoint x="561.2903225806451" y="640" as="targetPoint"/>
                    </mxGeometry>
                </mxCell>
                <mxCell id="41" value="" style="endArrow=none;html=1;" edge="1" parent="1" source="19" target="29">
                    <mxGeometry width="50" height="50" relative="1" as="geometry">
                        <mxPoint x="520" y="680" as="sourcePoint"/>
                        <mxPoint x="551.2903225806451" y="660" as="targetPoint"/>
                    </mxGeometry>
                </mxCell>
                <mxCell id="42" value="" style="endArrow=none;html=1;" edge="1" parent="1" source="28" target="29">
                    <mxGeometry width="50" height="50" relative="1" as="geometry">
                        <mxPoint x="590" y="720" as="sourcePoint"/>
                        <mxPoint x="621.2903225806451" y="700" as="targetPoint"/>
                    </mxGeometry>
                </mxCell>
                <mxCell id="43" value="" style="endArrow=none;html=1;" edge="1" parent="1" source="24" target="29">
                    <mxGeometry width="50" height="50" relative="1" as="geometry">
                        <mxPoint x="420" y="750" as="sourcePoint"/>
                        <mxPoint x="451.2903225806451" y="730" as="targetPoint"/>
                    </mxGeometry>
                </mxCell>
                <mxCell id="44" value="" style="endArrow=none;html=1;" edge="1" parent="1" source="23" target="29">
                    <mxGeometry width="50" height="50" relative="1" as="geometry">
                        <mxPoint x="260" y="700" as="sourcePoint"/>
                        <mxPoint x="291.2903225806451" y="680" as="targetPoint"/>
                    </mxGeometry>
                </mxCell>
                <mxCell id="45" value="" style="endArrow=none;html=1;" edge="1" parent="1" source="14" target="29">
                    <mxGeometry width="50" height="50" relative="1" as="geometry">
                        <mxPoint x="290" y="780" as="sourcePoint"/>
                        <mxPoint x="321.2903225806451" y="760" as="targetPoint"/>
                    </mxGeometry>
                </mxCell>
                <mxCell id="46" value="" style="endArrow=none;html=1;" edge="1" parent="1" source="21" target="29">
                    <mxGeometry width="50" height="50" relative="1" as="geometry">
                        <mxPoint x="230" y="880" as="sourcePoint"/>
                        <mxPoint x="261.2903225806451" y="860" as="targetPoint"/>
                    </mxGeometry>
                </mxCell>
                <mxCell id="14" value="&lt;b&gt;9. Symphonie&lt;br&gt;&lt;/b&gt;&lt;i&gt;letzte und bekannteste Symphonie&lt;/i&gt;" style="rounded=0;whiteSpace=wrap;html=1;fontFamily=Alegreya;fontSource=https%3A%2F%2Ffonts.googleapis.com%2Fcss%3Ffamily%3DAlegreya;" parent="1" vertex="1">
                    <mxGeometry x="210" y="770" width="190" height="40" as="geometry"/>
                </mxCell>
                <mxCell id="23" value="&lt;b&gt;Wellingtons Sieg&lt;br&gt;&lt;/b&gt;&lt;i style=&quot;border-color: var(--border-color);&quot;&gt;Komposition über den&lt;br style=&quot;border-color: var(--border-color);&quot;&gt;Sieg von Wellington über Napolean&lt;/i&gt;" style="rounded=0;whiteSpace=wrap;html=1;fontFamily=Alegreya;fontSource=https%3A%2F%2Ffonts.googleapis.com%2Fcss%3Ffamily%3DAlegreya;" parent="1" vertex="1">
                    <mxGeometry x="40" y="640" width="190" height="60" as="geometry"/>
                </mxCell>
                <mxCell id="47" value="" style="endArrow=none;html=1;" edge="1" parent="1" source="27" target="29">
                    <mxGeometry width="50" height="50" relative="1" as="geometry">
                        <mxPoint x="300" y="840" as="sourcePoint"/>
                        <mxPoint x="331.2903225806451" y="820" as="targetPoint"/>
                    </mxGeometry>
                </mxCell>
                <mxCell id="48" value="" style="endArrow=none;html=1;" edge="1" parent="1" source="6" target="29">
                    <mxGeometry width="50" height="50" relative="1" as="geometry">
                        <mxPoint x="300" y="930" as="sourcePoint"/>
                        <mxPoint x="331.2903225806451" y="910" as="targetPoint"/>
                    </mxGeometry>
                </mxCell>
                <mxCell id="27" value="&lt;b&gt;Appassionata&lt;br&gt;&lt;/b&gt;&lt;i&gt;Berühmte Klaviersonate (Nr. 23)&lt;/i&gt;" style="rounded=0;whiteSpace=wrap;html=1;fontFamily=Alegreya;fontSource=https%3A%2F%2Ffonts.googleapis.com%2Fcss%3Ffamily%3DAlegreya;" parent="1" vertex="1">
                    <mxGeometry x="390" y="830" width="180" height="40" as="geometry"/>
                </mxCell>
                <mxCell id="49" value="" style="endArrow=none;html=1;" edge="1" parent="1" source="16" target="29">
                    <mxGeometry width="50" height="50" relative="1" as="geometry">
                        <mxPoint x="580" y="850" as="sourcePoint"/>
                        <mxPoint x="611.2903225806451" y="830" as="targetPoint"/>
                    </mxGeometry>
                </mxCell>
                <mxCell id="24" value="&lt;b&gt;Diabelli-Variationen&lt;br&gt;&lt;/b&gt;&lt;i&gt;Klavierwerk über &lt;br&gt;eine Thema von Diabelli&lt;/i&gt;" style="rounded=0;whiteSpace=wrap;html=1;fontFamily=Alegreya;fontSource=https%3A%2F%2Ffonts.googleapis.com%2Fcss%3Ffamily%3DAlegreya;" parent="1" vertex="1">
                    <mxGeometry x="595" y="740" width="140" height="60" as="geometry"/>
                </mxCell>
                <mxCell id="19" value="&lt;b&gt;5. Symphonie&lt;br&gt;&lt;/b&gt;&lt;i&gt;auch Schicksals-Symphonie&lt;/i&gt;" style="rounded=0;whiteSpace=wrap;html=1;fontFamily=Alegreya;fontSource=https%3A%2F%2Ffonts.googleapis.com%2Fcss%3Ffamily%3DAlegreya;" parent="1" vertex="1">
                    <mxGeometry x="240" y="700" width="160" height="40" as="geometry"/>
                </mxCell>
                <mxCell id="50" value="" style="endArrow=none;html=1;" edge="1" parent="1" source="12" target="29">
                    <mxGeometry width="50" height="50" relative="1" as="geometry">
                        <mxPoint x="230" y="410" as="sourcePoint"/>
                        <mxPoint x="261.2903225806451" y="390" as="targetPoint"/>
                    </mxGeometry>
                </mxCell>
                <mxCell id="51" value="" style="endArrow=none;html=1;" edge="1" parent="1" source="26" target="29">
                    <mxGeometry width="50" height="50" relative="1" as="geometry">
                        <mxPoint x="230" y="380" as="sourcePoint"/>
                        <mxPoint x="261.2903225806451" y="360" as="targetPoint"/>
                    </mxGeometry>
                </mxCell>
                <mxCell id="52" value="" style="endArrow=none;html=1;" edge="1" parent="1" source="18" target="29">
                    <mxGeometry width="50" height="50" relative="1" as="geometry">
                        <mxPoint x="250" y="350" as="sourcePoint"/>
                        <mxPoint x="281.2903225806451" y="330" as="targetPoint"/>
                    </mxGeometry>
                </mxCell>
                <mxCell id="53" value="" style="endArrow=none;html=1;" edge="1" parent="1" source="3" target="29">
                    <mxGeometry width="50" height="50" relative="1" as="geometry">
                        <mxPoint x="310" y="340" as="sourcePoint"/>
                        <mxPoint x="341.2903225806451" y="320" as="targetPoint"/>
                    </mxGeometry>
                </mxCell>
                <mxCell id="54" value="" style="endArrow=none;html=1;" edge="1" parent="1" source="2" target="29">
                    <mxGeometry width="50" height="50" relative="1" as="geometry">
                        <mxPoint x="430" y="270" as="sourcePoint"/>
                        <mxPoint x="461.2903225806451" y="250" as="targetPoint"/>
                    </mxGeometry>
                </mxCell>
                <mxCell id="3" value="&lt;b&gt;Ludwig van Beethoven (Großvater)&lt;br&gt;&lt;/b&gt;&lt;i&gt;Großvater, 1712-1773&lt;/i&gt;" style="rounded=0;whiteSpace=wrap;html=1;fontFamily=Alegreya;fontSource=https%3A%2F%2Ffonts.googleapis.com%2Fcss%3Ffamily%3DAlegreya;" parent="1" vertex="1">
                    <mxGeometry x="280" y="290" width="190" height="40" as="geometry"/>
                </mxCell>
                <mxCell id="4" value="&lt;b&gt;Johann van Beethoven&lt;br&gt;&lt;/b&gt;&lt;i&gt;Vater, 1740-1793&lt;/i&gt;" style="rounded=0;whiteSpace=wrap;html=1;fontFamily=Alegreya;fontSource=https%3A%2F%2Ffonts.googleapis.com%2Fcss%3Ffamily%3DAlegreya;" parent="1" vertex="1">
                    <mxGeometry x="310" y="360" width="130" height="40" as="geometry"/>
                </mxCell>
                <mxCell id="25" value="&lt;b&gt;Karl van Beethoven&lt;br&gt;&lt;/b&gt;&lt;i&gt;Neffe&lt;/i&gt;" style="rounded=0;whiteSpace=wrap;html=1;fontFamily=Alegreya;fontSource=https%3A%2F%2Ffonts.googleapis.com%2Fcss%3Ffamily%3DAlegreya;" parent="1" vertex="1">
                    <mxGeometry x="300" y="440" width="120" height="40" as="geometry"/>
                </mxCell>
                <mxCell id="55" value="" style="endArrow=none;html=1;" edge="1" parent="1" source="29" target="20">
                    <mxGeometry width="50" height="50" relative="1" as="geometry">
                        <mxPoint x="580" y="370" as="sourcePoint"/>
                        <mxPoint x="611.2903225806451" y="350" as="targetPoint"/>
                    </mxGeometry>
                </mxCell>
                <mxCell id="15" value="&lt;b&gt;Heiligenstädter Testament&lt;br&gt;&lt;/b&gt;&lt;i&gt;nie abgeschickter Brief, in dem Beethoven die &lt;br&gt;Verzweifelung über die Taubheit niederschrieb&lt;/i&gt;" style="rounded=0;whiteSpace=wrap;html=1;fontFamily=Alegreya;fontSource=https%3A%2F%2Ffonts.googleapis.com%2Fcss%3Ffamily%3DAlegreya;" parent="1" vertex="1">
                    <mxGeometry x="505" y="390" width="250" height="60" as="geometry"/>
                </mxCell>
                <mxCell id="16" value="&lt;b&gt;Für Elise&lt;br&gt;&lt;/b&gt;&lt;i&gt;bekanntes Klavierstück&lt;/i&gt;" style="rounded=0;whiteSpace=wrap;html=1;fontFamily=Alegreya;fontSource=https%3A%2F%2Ffonts.googleapis.com%2Fcss%3Ffamily%3DAlegreya;" parent="1" vertex="1">
                    <mxGeometry x="430" y="730" width="140" height="40" as="geometry"/>
                </mxCell>
                <mxCell id="6" value="&lt;b&gt;Variationen über einen Marsch von Dressler&lt;br&gt;&lt;/b&gt;&lt;i&gt;Erstes gedrucktes Werk&lt;/i&gt;" style="rounded=0;whiteSpace=wrap;html=1;fontFamily=Alegreya;fontSource=https%3A%2F%2Ffonts.googleapis.com%2Fcss%3Ffamily%3DAlegreya;" parent="1" vertex="1">
                    <mxGeometry x="560" y="670" width="240" height="40" as="geometry"/>
                </mxCell>
                <mxCell id="11" value="&lt;b&gt;Konversationshefte&lt;br&gt;&lt;/b&gt;&lt;i&gt;Kommunikationsmedium wegen der Taubheit&lt;/i&gt;" style="rounded=0;whiteSpace=wrap;html=1;fontFamily=Alegreya;fontSource=https%3A%2F%2Ffonts.googleapis.com%2Fcss%3Ffamily%3DAlegreya;" parent="1" vertex="1">
                    <mxGeometry x="40" y="380" width="240" height="40" as="geometry"/>
                </mxCell>
            </root>
        </mxGraphModel>
    </diagram>
</mxfile>
